<svg width="25" height="24" viewBox="0 0 25 24" fill="none" xmlns="http://www.w3.org/2000/svg">
<path fill-rule="evenodd" clip-rule="evenodd" d="M16.9611 21.4998H8.6133C5.54694 21.4998 3.19454 20.3922 3.86273 15.9346L4.64076 9.89339C5.05266 7.66913 6.47143 6.81787 7.71628 6.81787H17.8948C19.1579 6.81787 20.4943 7.7332 20.9703 9.89339L21.7483 15.9346C22.3158 19.8888 20.0275 21.4998 16.9611 21.4998Z" stroke="#53545C" stroke-width="1.5" stroke-linecap="round" stroke-linejoin="round"/>
<path d="M17.0985 6.59824C17.0985 4.21216 15.1642 2.27787 12.7781 2.27787V2.27787C11.6291 2.273 10.5255 2.72603 9.71132 3.53679C8.89714 4.34754 8.43944 5.44923 8.43945 6.59824V6.59824" stroke="#53545C" stroke-width="1.5" stroke-linecap="round" stroke-linejoin="round"/>
<path d="M15.7437 11.1017H15.698" stroke="#53545C" stroke-width="1.5" stroke-linecap="round" stroke-linejoin="round"/>
<path d="M9.91317 11.1017H9.8674" stroke="#53545C" stroke-width="1.5" stroke-linecap="round" stroke-linejoin="round"/>
</svg>
