<svg width="36" height="36" viewBox="0 0 36 36" fill="none" xmlns="http://www.w3.org/2000/svg">
<path d="M0 18C0 8.05888 8.05888 0 18 0C27.9411 0 36 8.05888 36 18C36 27.9411 27.9411 36 18 36C8.05888 36 0 27.9411 0 18Z" fill="#EEF0FA"/>
<g clip-path="url(#clip0_697_3338)">
<path d="M24.6666 26.3333C25.1268 26.3333 25.4999 25.9602 25.4999 25.5C25.4999 25.0397 25.1268 24.6666 24.6666 24.6666C24.2063 24.6666 23.8333 25.0397 23.8333 25.5C23.8333 25.9602 24.2063 26.3333 24.6666 26.3333Z" stroke="black" stroke-width="2" stroke-linecap="round" stroke-linejoin="round"/>
<path d="M15.5001 26.3333C15.9603 26.3333 16.3334 25.9602 16.3334 25.5C16.3334 25.0397 15.9603 24.6666 15.5001 24.6666C15.0398 24.6666 14.6667 25.0397 14.6667 25.5C14.6667 25.9602 15.0398 26.3333 15.5001 26.3333Z" stroke="black" stroke-width="2" stroke-linecap="round" stroke-linejoin="round"/>
<path d="M8.83325 8.83337H12.1666L14.3999 19.9917C14.4761 20.3754 14.6848 20.72 14.9895 20.9653C15.2942 21.2106 15.6755 21.3409 16.0666 21.3334H24.1666C24.5577 21.3409 24.9389 21.2106 25.2436 20.9653C25.5483 20.72 25.757 20.3754 25.8333 19.9917L27.1666 13H12.9999" stroke="black" stroke-width="2" stroke-linecap="round" stroke-linejoin="round"/>
</g>
<defs>
<clipPath id="clip0_697_3338">
<rect width="20" height="20" fill="white" transform="translate(8 8)"/>
</clipPath>
</defs>
</svg>
