<svg width="16" height="18" viewBox="0 0 16 18" fill="none" xmlns="http://www.w3.org/2000/svg">
<path d="M11.4993 15.6666H4.83268C4.16964 15.6666 3.53376 15.4032 3.06492 14.9344C2.59607 14.4656 2.33268 13.8297 2.33268 13.1666V4.83329C2.33268 4.61228 2.24488 4.40032 2.0886 4.24404C1.93232 4.08776 1.72036 3.99996 1.49935 3.99996C1.27834 3.99996 1.06637 4.08776 0.910093 4.24404C0.753813 4.40032 0.666016 4.61228 0.666016 4.83329V13.1666C0.666016 14.2717 1.105 15.3315 1.8864 16.1129C2.66781 16.8943 3.72761 17.3333 4.83268 17.3333H11.4993C11.7204 17.3333 11.9323 17.2455 12.0886 17.0892C12.2449 16.9329 12.3327 16.721 12.3327 16.5C12.3327 16.2789 12.2449 16.067 12.0886 15.9107C11.9323 15.7544 11.7204 15.6666 11.4993 15.6666ZM15.666 6.44996C15.6573 6.3734 15.6406 6.29798 15.616 6.22496V6.14996C15.5759 6.06428 15.5225 5.98551 15.4577 5.91663L10.4577 0.916626C10.3888 0.851806 10.31 0.79836 10.2243 0.758293H10.1493L9.88268 0.666626H6.49935C5.83631 0.666626 5.20042 0.930018 4.73158 1.39886C4.26274 1.8677 3.99935 2.50358 3.99935 3.16663V11.5C3.99935 12.163 4.26274 12.7989 4.73158 13.2677C5.20042 13.7366 5.83631 14 6.49935 14H13.166C13.8291 14 14.4649 13.7366 14.9338 13.2677C15.4026 12.7989 15.666 12.163 15.666 11.5V6.49996C15.666 6.49996 15.666 6.49996 15.666 6.44996ZM10.666 3.50829L12.8243 5.66663H11.4993C11.2783 5.66663 11.0664 5.57883 10.9101 5.42255C10.7538 5.26627 10.666 5.05431 10.666 4.83329V3.50829ZM13.9993 11.5C13.9993 11.721 13.9116 11.9329 13.7553 12.0892C13.599 12.2455 13.387 12.3333 13.166 12.3333H6.49935C6.27834 12.3333 6.06637 12.2455 5.91009 12.0892C5.75381 11.9329 5.66602 11.721 5.66602 11.5V3.16663C5.66602 2.94561 5.75381 2.73365 5.91009 2.57737C6.06637 2.42109 6.27834 2.33329 6.49935 2.33329H8.99935V4.83329C8.99935 5.49633 9.26274 6.13222 9.73158 6.60106C10.2004 7.0699 10.8363 7.33329 11.4993 7.33329H13.9993V11.5Z" fill="#FFD014"/>
</svg>
