<svg width="16" height="18" viewBox="0 0 16 18" fill="none" xmlns="http://www.w3.org/2000/svg">
<path d="M10.8817 15.6666H4.21501C3.55197 15.6666 2.91608 15.4032 2.44724 14.9344C1.9784 14.4656 1.71501 13.8297 1.71501 13.1666V4.83329C1.71501 4.61228 1.62721 4.40032 1.47093 4.24404C1.31465 4.08776 1.10269 3.99996 0.881673 3.99996C0.660659 3.99996 0.448698 4.08776 0.292417 4.24404C0.136137 4.40032 0.0483398 4.61228 0.0483398 4.83329V13.1666C0.0483398 14.2717 0.487327 15.3315 1.26873 16.1129C2.05013 16.8943 3.10994 17.3333 4.21501 17.3333H10.8817C11.1027 17.3333 11.3146 17.2455 11.4709 17.0892C11.6272 16.9329 11.715 16.721 11.715 16.5C11.715 16.2789 11.6272 16.067 11.4709 15.9107C11.3146 15.7544 11.1027 15.6666 10.8817 15.6666ZM15.0483 6.44996C15.0397 6.3734 15.0229 6.29798 14.9983 6.22496V6.14996C14.9583 6.06428 14.9048 5.98551 14.84 5.91663L9.84001 0.916626C9.77112 0.851806 9.69236 0.79836 9.60667 0.758293H9.53167L9.26501 0.666626H5.88167C5.21863 0.666626 4.58275 0.930018 4.11391 1.39886C3.64507 1.8677 3.38167 2.50358 3.38167 3.16663V11.5C3.38167 12.163 3.64507 12.7989 4.11391 13.2677C4.58275 13.7366 5.21863 14 5.88167 14H12.5483C13.2114 14 13.8473 13.7366 14.3161 13.2677C14.7849 12.7989 15.0483 12.163 15.0483 11.5V6.49996C15.0483 6.49996 15.0483 6.49996 15.0483 6.44996ZM10.0483 3.50829L12.2067 5.66663H10.8817C10.6607 5.66663 10.4487 5.57883 10.2924 5.42255C10.1361 5.26627 10.0483 5.05431 10.0483 4.83329V3.50829ZM13.3817 11.5C13.3817 11.721 13.2939 11.9329 13.1376 12.0892C12.9813 12.2455 12.7694 12.3333 12.5483 12.3333H5.88167C5.66066 12.3333 5.4487 12.2455 5.29242 12.0892C5.13614 11.9329 5.04834 11.721 5.04834 11.5V3.16663C5.04834 2.94561 5.13614 2.73365 5.29242 2.57737C5.4487 2.42109 5.66066 2.33329 5.88167 2.33329H8.38167V4.83329C8.38167 5.49633 8.64506 6.13222 9.11391 6.60106C9.58275 7.0699 10.2186 7.33329 10.8817 7.33329H13.3817V11.5Z" fill="#5570F1"/>
</svg>
