<svg width="13" height="14" viewBox="0 0 13 14" fill="none" xmlns="http://www.w3.org/2000/svg">
<path d="M9.21501 12.3334H3.88167C3.35124 12.3334 2.84253 12.1227 2.46746 11.7476C2.09239 11.3725 1.88167 10.8638 1.88167 10.3334V3.66671C1.88167 3.4899 1.81144 3.32033 1.68641 3.1953C1.56139 3.07028 1.39182 3.00004 1.21501 3.00004C1.0382 3.00004 0.868626 3.07028 0.743602 3.1953C0.618578 3.32033 0.54834 3.4899 0.54834 3.66671V10.3334C0.54834 11.2174 0.899529 12.0653 1.52465 12.6904C2.14977 13.3155 2.99762 13.6667 3.88167 13.6667H9.21501C9.39182 13.6667 9.56139 13.5965 9.68641 13.4714C9.81144 13.3464 9.88167 13.1769 9.88167 13C9.88167 12.8232 9.81144 12.6537 9.68641 12.5286C9.56139 12.4036 9.39182 12.3334 9.21501 12.3334ZM12.5483 4.96004C12.5414 4.8988 12.528 4.83846 12.5083 4.78004V4.72004C12.4763 4.65149 12.4335 4.58848 12.3817 4.53337L8.38167 0.533374C8.32656 0.481518 8.26355 0.438761 8.19501 0.406707H8.13501L7.92167 0.333374H5.21501C4.68457 0.333374 4.17587 0.544088 3.80079 0.91916C3.42572 1.29423 3.21501 1.80294 3.21501 2.33337V9.00004C3.21501 9.53047 3.42572 10.0392 3.80079 10.4143C4.17587 10.7893 4.68457 11 5.21501 11H10.5483C11.0788 11 11.5875 10.7893 11.9626 10.4143C12.3376 10.0392 12.5483 9.53047 12.5483 9.00004V5.00004C12.5483 5.00004 12.5483 5.00004 12.5483 4.96004ZM8.54834 2.60671L10.275 4.33337H9.21501C9.0382 4.33337 8.86863 4.26314 8.7436 4.13811C8.61858 4.01309 8.54834 3.84352 8.54834 3.66671V2.60671ZM11.215 9.00004C11.215 9.17685 11.1448 9.34642 11.0197 9.47144C10.8947 9.59647 10.7252 9.66671 10.5483 9.66671H5.21501C5.0382 9.66671 4.86863 9.59647 4.7436 9.47144C4.61858 9.34642 4.54834 9.17685 4.54834 9.00004V2.33337C4.54834 2.15656 4.61858 1.98699 4.7436 1.86197C4.86863 1.73695 5.0382 1.66671 5.21501 1.66671H7.21501V3.66671C7.21501 4.19714 7.42572 4.70585 7.80079 5.08092C8.17587 5.45599 8.68457 5.66671 9.21501 5.66671H11.215V9.00004Z" fill="#8B8D97"/>
</svg>
