<svg width="17" height="16" viewBox="0 0 17 16" fill="none" xmlns="http://www.w3.org/2000/svg">
<path d="M6.54292 13.8549V11.8103C6.54291 11.2922 6.96422 10.8713 7.48606 10.868H9.40218C9.92635 10.868 10.3513 11.2899 10.3513 11.8103V13.849C10.3513 14.2983 10.7165 14.6636 11.1691 14.6668H12.4763C13.0869 14.6684 13.6729 14.4287 14.1052 14.0006C14.5375 13.5726 14.7804 12.9913 14.7804 12.3852V6.57739C14.7804 6.08775 14.5618 5.6233 14.1835 5.30916L9.74242 1.78301C8.96611 1.16624 7.85735 1.18617 7.10403 1.83042L2.75844 5.30916C2.36226 5.61404 2.12547 6.07987 2.11377 6.57739V12.3793C2.11377 13.6426 3.14536 14.6668 4.41789 14.6668H5.6953C5.91322 14.6684 6.12276 14.5835 6.27742 14.4311C6.43208 14.2787 6.51905 14.0713 6.51905 13.8549H6.54292Z" fill="black"/>
</svg>
