<svg width="37" height="36" viewBox="0 0 37 36" fill="none" xmlns="http://www.w3.org/2000/svg">
<path d="M0.447266 18C0.447266 8.05888 8.50614 0 18.4473 0C28.3884 0 36.4473 8.05888 36.4473 18C36.4473 27.9411 28.3884 36 18.4473 36C8.50614 36 0.447266 27.9411 0.447266 18Z" fill="#EEF0FA"/>
<path fill-rule="evenodd" clip-rule="evenodd" d="M22.2087 25.9167H15.2522C12.6969 25.9167 10.7366 24.9937 11.2934 21.279L11.9418 16.2447C12.285 14.3911 13.4673 13.6818 14.5047 13.6818H22.9868C24.0394 13.6818 25.1531 14.4445 25.5497 16.2447L26.1981 21.279C26.671 24.5742 24.764 25.9167 22.2087 25.9167Z" stroke="#130F26" stroke-width="1.5" stroke-linecap="round" stroke-linejoin="round"/>
<path d="M22.3233 13.4987C22.3233 11.5103 20.7114 9.89835 18.723 9.89835V9.89835C17.7655 9.89429 16.8458 10.2718 16.1673 10.9474C15.4888 11.6231 15.1074 12.5411 15.1074 13.4987V13.4987" stroke="#130F26" stroke-width="1.5" stroke-linecap="round" stroke-linejoin="round"/>
<path d="M21.1944 17.2515H21.1563" stroke="#130F26" stroke-width="1.5" stroke-linecap="round" stroke-linejoin="round"/>
<path d="M16.3355 17.2515H16.2974" stroke="#130F26" stroke-width="1.5" stroke-linecap="round" stroke-linejoin="round"/>
</svg>
