<svg width="37" height="36" viewBox="0 0 37 36" fill="none" xmlns="http://www.w3.org/2000/svg">
<path d="M0.447266 18C0.447266 8.05888 8.50614 0 18.4473 0C28.3884 0 36.4473 8.05888 36.4473 18C36.4473 27.9411 28.3884 36 18.4473 36C8.50614 36 0.447266 27.9411 0.447266 18Z" fill="#EEF0FA"/>
<path fill-rule="evenodd" clip-rule="evenodd" d="M22.8453 19.5745C23.4076 19.5745 23.8796 20.0386 23.7936 20.5938C23.2892 23.8605 20.4927 26.2859 17.1199 26.2859C13.3883 26.2859 10.3638 23.2614 10.3638 19.5307C10.3638 16.457 12.6989 13.5938 15.3278 12.9465C15.8927 12.807 16.4717 13.2044 16.4717 13.7859C16.4717 17.7263 16.6041 18.7456 17.3524 19.3C18.1006 19.8544 18.9804 19.5745 22.8453 19.5745Z" stroke="black" stroke-width="1.5" stroke-linecap="round" stroke-linejoin="round"/>
<path fill-rule="evenodd" clip-rule="evenodd" d="M26.5241 16.293C26.5688 13.7614 23.4591 9.68072 19.6697 9.75089C19.3749 9.75616 19.139 10.0018 19.1258 10.2956C19.0302 12.3772 19.1591 15.0746 19.2311 16.2974C19.253 16.6781 19.5521 16.9772 19.9319 16.9991C21.189 17.0711 23.9846 17.1693 26.0363 16.8588C26.3153 16.8167 26.5197 16.5746 26.5241 16.293Z" stroke="black" stroke-width="1.5" stroke-linecap="round" stroke-linejoin="round"/>
</svg>
