<svg width="18" height="18" viewBox="0 0 18 18" fill="none" xmlns="http://www.w3.org/2000/svg">
<path d="M15.511 1.80299C13.3889 -0.319112 9.93603 -0.319079 7.81392 1.80299C6.36454 3.25237 5.86125 5.38885 6.48858 7.32676L0.36126 13.4541C0.268452 13.5469 0.216309 13.6727 0.216309 13.804V16.6029C0.216309 16.8762 0.437842 17.0977 0.71109 17.0977H3.51006C3.64133 17.0977 3.76712 17.0456 3.85996 16.9528L4.55982 16.2529C4.66671 16.146 4.71888 15.9961 4.7014 15.8459L4.61407 15.0945L5.65574 14.9963C5.89228 14.974 6.07962 14.7867 6.10191 14.5502L6.20016 13.5084L6.95163 13.5957C7.09194 13.6121 7.23237 13.5676 7.33784 13.4737C7.44325 13.3799 7.50357 13.2454 7.50357 13.1042V12.1828H8.40824C8.53849 12.1828 8.66345 12.1314 8.75609 12.0399L9.98536 10.8248C11.9237 11.4531 14.0613 10.9499 15.5111 9.50008C17.6331 7.37801 17.6331 3.92506 15.511 1.80299ZM14.8113 8.80038C13.5625 10.0492 11.6891 10.439 10.0389 9.79357C9.85674 9.72237 9.64981 9.76505 9.5108 9.90248L8.20498 11.1932H7.00876C6.73551 11.1932 6.51398 11.4148 6.51398 11.688V12.5486L5.81214 12.467C5.67992 12.4517 5.54714 12.4902 5.44368 12.5739C5.34025 12.6576 5.27488 12.7795 5.26238 12.912L5.15509 14.0495L4.01771 14.1567C3.88519 14.1692 3.76332 14.2345 3.67955 14.338C3.59581 14.4414 3.55726 14.5743 3.57263 14.7065L3.69076 15.7224L3.30508 16.1082H1.20584V14.009L7.40948 7.80534C7.54846 7.66636 7.59203 7.45828 7.52043 7.27524C6.87492 5.62493 7.26479 3.75167 8.51362 2.50278C10.2499 0.766526 13.075 0.766526 14.8113 2.50278C16.5475 4.239 16.5475 7.06413 14.8113 8.80038Z" fill="#8F8F8F"/>
</svg>
