<svg width="37" height="36" viewBox="0 0 37 36" fill="none" xmlns="http://www.w3.org/2000/svg">
<path d="M0.54834 18C0.54834 8.05888 8.60721 0 18.5483 0C28.4895 0 36.5483 8.05888 36.5483 18C36.5483 27.9411 28.4895 36 18.5483 36C8.60721 36 0.54834 27.9411 0.54834 18Z" fill="#EEF0FA"/>
<path d="M26.2233 21.2416C25.6931 22.4953 24.8639 23.6001 23.8082 24.4594C22.7524 25.3186 21.5022 25.9061 20.167 26.1706C18.8317 26.4351 17.452 26.3684 16.1484 25.9764C14.8448 25.5845 13.6571 24.8792 12.6891 23.9222C11.7211 22.9651 11.0023 21.7856 10.5955 20.4866C10.1886 19.1876 10.1062 17.8087 10.3554 16.4705C10.6046 15.1323 11.1778 13.8755 12.025 12.81C12.8721 11.7445 13.9673 10.9027 15.2149 10.3583" stroke="black" stroke-width="2" stroke-linecap="round" stroke-linejoin="round"/>
<path d="M26.8817 18C26.8817 16.9056 26.6661 15.822 26.2473 14.8109C25.8285 13.7999 25.2147 12.8812 24.4409 12.1074C23.6671 11.3336 22.7484 10.7198 21.7374 10.301C20.7263 9.88217 19.6427 9.66663 18.5483 9.66663V18H26.8817Z" stroke="black" stroke-width="2" stroke-linecap="round" stroke-linejoin="round"/>
</svg>
