<svg width="57" height="72" viewBox="0 0 57 72" fill="none" xmlns="http://www.w3.org/2000/svg">
<mask id="path-1-inside-1_419_10158" fill="white">
<path d="M0.814453 0H58.8145V72H0.814453V0Z"/>
</mask>
<path d="M0.814453 0H58.8145V72H0.814453V0Z" fill="white"/>
<path d="M58.8145 71H0.814453V73H58.8145V71Z" fill="#EAECF0" mask="url(#path-1-inside-1_419_10158)"/>
<path d="M34.8143 36.8335C35.2745 36.8335 35.6476 36.4604 35.6476 36.0002C35.6476 35.5399 35.2745 35.1668 34.8143 35.1668C34.3541 35.1668 33.981 35.5399 33.981 36.0002C33.981 36.4604 34.3541 36.8335 34.8143 36.8335Z" stroke="#344054" stroke-width="1.66667" stroke-linecap="round" stroke-linejoin="round"/>
<path d="M34.8143 31.0002C35.2745 31.0002 35.6476 30.6271 35.6476 30.1668C35.6476 29.7066 35.2745 29.3335 34.8143 29.3335C34.3541 29.3335 33.981 29.7066 33.981 30.1668C33.981 30.6271 34.3541 31.0002 34.8143 31.0002Z" stroke="#344054" stroke-width="1.66667" stroke-linecap="round" stroke-linejoin="round"/>
<path d="M34.8143 42.6668C35.2745 42.6668 35.6476 42.2937 35.6476 41.8335C35.6476 41.3733 35.2745 41.0002 34.8143 41.0002C34.3541 41.0002 33.981 41.3733 33.981 41.8335C33.981 42.2937 34.3541 42.6668 34.8143 42.6668Z" stroke="#344054" stroke-width="1.66667" stroke-linecap="round" stroke-linejoin="round"/>
</svg>
