<svg width="4" height="16" viewBox="0 0 4 16" fill="none" xmlns="http://www.w3.org/2000/svg">
<path d="M1.81429 8.8335C2.27453 8.8335 2.64762 8.4604 2.64762 8.00016C2.64762 7.53993 2.27453 7.16683 1.81429 7.16683C1.35405 7.16683 0.980957 7.53993 0.980957 8.00016C0.980957 8.4604 1.35405 8.8335 1.81429 8.8335Z" stroke="#344054" stroke-width="1.66667" stroke-linecap="round" stroke-linejoin="round"/>
<path d="M1.81429 3.00016C2.27453 3.00016 2.64762 2.62707 2.64762 2.16683C2.64762 1.70659 2.27453 1.3335 1.81429 1.3335C1.35405 1.3335 0.980957 1.70659 0.980957 2.16683C0.980957 2.62707 1.35405 3.00016 1.81429 3.00016Z" stroke="#344054" stroke-width="1.66667" stroke-linecap="round" stroke-linejoin="round"/>
<path d="M1.81429 14.6668C2.27453 14.6668 2.64762 14.2937 2.64762 13.8335C2.64762 13.3733 2.27453 13.0002 1.81429 13.0002C1.35405 13.0002 0.980957 13.3733 0.980957 13.8335C0.980957 14.2937 1.35405 14.6668 1.81429 14.6668Z" stroke="#344054" stroke-width="1.66667" stroke-linecap="round" stroke-linejoin="round"/>
</svg>
