<svg width="33" height="32" viewBox="0 0 33 32" fill="none" xmlns="http://www.w3.org/2000/svg">
<rect x="0.447266" width="32" height="32" rx="8" fill="#E7E7E7"/>
<path d="M22.5514 13.8906C22.5514 13.8906 22.0989 19.5031 21.8364 21.8673C21.7114 22.9965 21.0139 23.6581 19.8714 23.679C17.6973 23.7181 15.5206 23.7206 13.3473 23.6748C12.2481 23.6523 11.5623 22.9823 11.4398 21.8731C11.1756 19.4881 10.7256 13.8906 10.7256 13.8906" stroke="#130F26" stroke-width="1.5" stroke-linecap="round" stroke-linejoin="round"/>
<path d="M23.7039 11.1999H9.57227" stroke="#130F26" stroke-width="1.5" stroke-linecap="round" stroke-linejoin="round"/>
<path d="M20.9808 11.2C20.3266 11.2 19.7633 10.7375 19.6349 10.0966L19.4324 9.08331C19.3074 8.61581 18.8841 8.29248 18.4016 8.29248H14.8741C14.3916 8.29248 13.9683 8.61581 13.8433 9.08331L13.6408 10.0966C13.5124 10.7375 12.9491 11.2 12.2949 11.2" stroke="#130F26" stroke-width="1.5" stroke-linecap="round" stroke-linejoin="round"/>
</svg>
