<svg width="24" height="23" viewBox="0 0 24 23" fill="none" xmlns="http://www.w3.org/2000/svg">
<g clip-path="url(#clip0_408_6639)">
<path d="M22.8212 3.92917C22.275 3.25833 21.4604 2.875 20.5979 2.875H7.41123L7.3729 2.53958C7.2004 1.0925 5.97373 0 4.51707 0H3.3479C2.82082 0 2.38957 0.43125 2.38957 0.958333C2.38957 1.48542 2.82082 1.91667 3.3479 1.91667H4.51707C5.00582 1.91667 5.40832 2.28083 5.46582 2.76L6.78832 13.9725C7.07582 16.3875 9.11707 18.2083 11.5512 18.2083H19.6396C20.1667 18.2083 20.5979 17.7771 20.5979 17.25C20.5979 16.7229 20.1667 16.2917 19.6396 16.2917H11.5512C10.315 16.2917 9.24165 15.5058 8.83915 14.375H17.8762C20.1571 14.375 22.1312 12.7554 22.5721 10.5225L23.4154 6.31542C23.5879 5.47208 23.3675 4.6 22.8212 3.92917ZM21.5371 5.94167L20.6937 10.1488C20.4254 11.4904 19.2371 12.4583 17.8762 12.4583H8.54207L7.64123 4.79167H20.5979C20.8854 4.79167 21.1537 4.91625 21.3358 5.14625C21.5179 5.36667 21.5946 5.66375 21.5371 5.94167ZM11.0146 21.0833C11.0146 22.1375 10.1521 23 9.0979 23C8.04373 23 7.18123 22.1375 7.18123 21.0833C7.18123 20.0292 8.04373 19.1667 9.0979 19.1667C10.1521 19.1667 11.0146 20.0292 11.0146 21.0833ZM19.6396 21.0833C19.6396 22.1375 18.7771 23 17.7229 23C16.6687 23 15.8062 22.1375 15.8062 21.0833C15.8062 20.0292 16.6687 19.1667 17.7229 19.1667C18.7771 19.1667 19.6396 20.0292 19.6396 21.0833ZM0.4729 5.75C0.4729 5.22292 0.90415 4.79167 1.43123 4.79167H2.90707C3.43415 4.79167 3.8654 5.22292 3.8654 5.75C3.8654 6.27708 3.43415 6.70833 2.90707 6.70833H1.43123C0.90415 6.70833 0.4729 6.27708 0.4729 5.75ZM0.4729 9.58333C0.4729 9.05625 0.90415 8.625 1.43123 8.625H3.3479C3.87498 8.625 4.30623 9.05625 4.30623 9.58333C4.30623 10.1104 3.87498 10.5417 3.3479 10.5417H1.43123C0.90415 10.5417 0.4729 10.1104 0.4729 9.58333ZM5.26457 13.4167C5.26457 13.9437 4.83332 14.375 4.30623 14.375H1.43123C0.90415 14.375 0.4729 13.9437 0.4729 13.4167C0.4729 12.8896 0.90415 12.4583 1.43123 12.4583H4.30623C4.83332 12.4583 5.26457 12.8896 5.26457 13.4167Z" fill="black" stroke="#FFD014" stroke-width="0.7"/>
</g>
<defs>
<clipPath id="clip0_408_6639">
<rect width="23" height="23" fill="white" transform="translate(0.4729)"/>
</clipPath>
</defs>
</svg>
