<svg width="26" height="26" viewBox="0 0 26 26" fill="none" xmlns="http://www.w3.org/2000/svg">
<path fill-rule="evenodd" clip-rule="evenodd" d="M8.87177 8.82211C8.87177 6.7071 10.5937 4.98693 12.7111 4.98693C14.8285 4.98693 16.5505 6.7071 16.5505 8.82211V10.7292H8.87177V8.82211ZM19.43 10.7292H18.4702V8.82212C18.4702 5.65008 15.8873 3.06934 12.7111 3.06934C9.53502 3.06934 6.95209 5.65008 6.95209 8.82212V10.7292H5.99225C5.1975 10.7292 4.55249 11.3732 4.55249 12.1676V21.7556C4.55249 22.55 5.1975 23.194 5.99225 23.194H19.43C20.2248 23.194 20.8698 22.55 20.8698 21.7556V12.1676C20.8698 11.3732 20.2248 10.7292 19.43 10.7292ZM13.671 17.1748V19.3588C13.671 19.8878 13.241 20.3171 12.7111 20.3171C12.1803 20.3171 11.7513 19.8878 11.7513 19.3588V17.1748C11.1792 16.8432 10.7915 16.2318 10.7915 15.5236C10.7915 14.4647 11.6505 13.606 12.7111 13.606C13.7708 13.606 14.6308 14.4647 14.6308 15.5236C14.6308 16.2318 14.2421 16.8432 13.671 17.1748Z" fill="#6C6C6C"/>
</svg>
