<svg width="23" height="22" viewBox="0 0 23 22" fill="none" xmlns="http://www.w3.org/2000/svg">
<g clip-path="url(#clip0_394_12196)">
<path d="M14.325 8.33301C14.0495 8.33301 13.8262 8.5563 13.8262 8.83181V18.2591C13.8262 18.5344 14.0495 18.7579 14.325 18.7579C14.6005 18.7579 14.8238 18.5344 14.8238 18.2591V8.83181C14.8238 8.5563 14.6005 8.33301 14.325 8.33301Z" fill="#374151"/>
<path d="M8.43776 8.33398C8.16225 8.33398 7.93896 8.55727 7.93896 8.83278V18.2601C7.93896 18.5354 8.16225 18.7589 8.43776 18.7589C8.71327 18.7589 8.93656 18.5354 8.93656 18.2601V8.83278C8.93656 8.55727 8.71327 8.33398 8.43776 8.33398Z" fill="#374151"/>
<path d="M7.08526 3.1045H4.63795H4.63793C3.62739 3.10471 2.77381 3.85418 2.64296 4.8561L2.64296 4.85612C2.51589 5.83088 3.11117 6.75019 4.04259 7.03821V19.2473C4.04259 19.9992 4.31824 20.7081 4.8034 21.2185C5.28661 21.7305 5.95903 22.0212 6.66276 22.0224H6.66295H16.1003H16.1005C16.8044 22.0212 17.4767 21.7306 17.9598 21.2187C18.445 20.7082 18.7207 19.9993 18.7207 19.2473V7.03821C19.6521 6.75018 20.2474 5.83088 20.1203 4.85612L20.1203 4.8561C19.9895 3.85418 19.1359 3.10471 18.1254 3.1045H18.1253H15.678V2.58775V2.5875H15.5715L7.08526 3.1045ZM7.08526 3.1045V2.58784M7.08526 3.1045V2.58784M7.08526 2.58784V2.5875H7.19175L7.08526 2.5881C7.08526 2.58801 7.08526 2.58792 7.08526 2.58784ZM8.29584 2.5875H8.29585L8.29583 2.58614C8.29288 2.35525 8.38364 2.13299 8.54755 1.96995L8.54759 1.96991C8.71126 1.80693 8.93404 1.71734 9.16523 1.72132L9.16523 1.72134H9.16706H13.5962V1.72136L13.5981 1.72132C13.8293 1.71734 14.052 1.80693 14.2157 1.96991L14.2158 1.96999C14.3796 2.1328 14.4704 2.35522 14.4675 2.58614L14.4675 2.58614V2.5875V3.1045H8.29584V2.5875ZM16.1003 20.8118H6.66295C5.87849 20.8118 5.25317 20.1369 5.25317 19.2473V7.10835H17.5101V19.2473C17.5101 20.1369 16.8848 20.8118 16.1003 20.8118ZM4.63795 4.31509H18.1253C18.5624 4.31509 18.9167 4.66937 18.9167 5.10643C18.9167 5.54349 18.5624 5.89777 18.1253 5.89777H4.63795C4.20089 5.89777 3.84661 5.54349 3.84661 5.10643C3.84661 4.66937 4.20089 4.31509 4.63795 4.31509Z" fill="#374151" stroke="#374151" stroke-width="0.212987"/>
<path d="M11.3818 8.33301C11.1063 8.33301 10.8831 8.5563 10.8831 8.83181V18.2591C10.8831 18.5344 11.1063 18.7579 11.3818 18.7579C11.6574 18.7579 11.8806 18.5344 11.8806 18.2591V8.83181C11.8806 8.5563 11.6574 8.33301 11.3818 8.33301Z" fill="#374151"/>
</g>
<defs>
<clipPath id="clip0_394_12196">
<rect width="21.2987" height="21.2987" fill="white" transform="translate(0.736328 0.617188)"/>
</clipPath>
</defs>
</svg>
