<svg width="69" height="67" viewBox="0 0 69 67" fill="none" xmlns="http://www.w3.org/2000/svg">
<g filter="url(#filter0_d_120_527)">
<path d="M44.4433 34.8894H27.8742L32.9455 40.9805C33.0629 41.1218 33.1513 41.2848 33.2058 41.4603C33.2602 41.6357 33.2795 41.8202 33.2626 42.0031C33.2286 42.3725 33.0492 42.7133 32.7639 42.9504C32.4786 43.1875 32.1107 43.3016 31.7413 43.2676C31.3719 43.2335 31.0311 43.0541 30.794 42.7688L23.8087 34.3864C23.7617 34.3198 23.7197 34.2497 23.683 34.1769C23.683 34.107 23.6131 34.0651 23.5852 33.9952C23.5219 33.8351 23.4887 33.6645 23.4874 33.4923C23.4887 33.3201 23.5219 33.1496 23.5852 32.9894C23.5852 32.9195 23.655 32.8776 23.683 32.8077C23.7197 32.7349 23.7617 32.6649 23.8087 32.5982L30.794 24.2158C30.9254 24.0581 31.0899 23.9313 31.2758 23.8444C31.4617 23.7575 31.6645 23.7126 31.8697 23.7129C32.1962 23.7123 32.5125 23.8259 32.7639 24.0342C32.9053 24.1515 33.0223 24.2955 33.108 24.4581C33.1937 24.6206 33.2465 24.7985 33.2634 24.9815C33.2802 25.1644 33.2608 25.349 33.2063 25.5244C33.1517 25.6999 33.0631 25.8629 32.9455 26.0041L27.8742 32.0952H44.4433C44.8138 32.0952 45.1691 32.2424 45.4311 32.5044C45.6931 32.7664 45.8403 33.1218 45.8403 33.4923C45.8403 33.8628 45.6931 34.2182 45.4311 34.4802C45.1691 34.7422 44.8138 34.8894 44.4433 34.8894Z" fill="black"/>
</g>
<defs>
<filter id="filter0_d_120_527" x="0.51829" y="0.743876" width="68.2911" height="65.4986" filterUnits="userSpaceOnUse" color-interpolation-filters="sRGB">
<feFlood flood-opacity="0" result="BackgroundImageFix"/>
<feColorMatrix in="SourceAlpha" type="matrix" values="0 0 0 0 0 0 0 0 0 0 0 0 0 0 0 0 0 0 127 0" result="hardAlpha"/>
<feOffset/>
<feGaussianBlur stdDeviation="11.4845"/>
<feComposite in2="hardAlpha" operator="out"/>
<feColorMatrix type="matrix" values="0 0 0 0 0 0 0 0 0 0 0 0 0 0 0 0 0 0 0.1 0"/>
<feBlend mode="normal" in2="BackgroundImageFix" result="effect1_dropShadow_120_527"/>
<feBlend mode="normal" in="SourceGraphic" in2="effect1_dropShadow_120_527" result="shape"/>
</filter>
</defs>
</svg>
