<svg width="20" height="21" viewBox="0 0 20 21" fill="none" xmlns="http://www.w3.org/2000/svg">
<path d="M4.57637 0.539062C3.9914 0.539062 3.51718 1.01328 3.51718 1.59826V2.65745H2.45799C1.28803 2.65745 0.3396 3.60588 0.3396 4.77583V6.89422H19.4051V4.77583C19.4051 3.60588 18.4566 2.65745 17.2867 2.65745H16.2275V1.59826C16.2275 1.01328 15.7533 0.539062 15.1683 0.539062H14.1091C13.5241 0.539062 13.0499 1.01328 13.0499 1.59826V2.65745H6.69476V1.59826C6.69476 1.01328 6.22054 0.539062 5.63556 0.539062H4.57637Z" fill="#6C6C6C"/>
<path fill-rule="evenodd" clip-rule="evenodd" d="M19.4051 9.01261H0.3396V18.5453C0.3396 19.7153 1.28803 20.6637 2.45799 20.6637H17.2867C18.4566 20.6637 19.4051 19.7153 19.4051 18.5453V9.01261ZM3.51718 12.1902C3.51718 11.6052 3.9914 11.131 4.57637 11.131H6.69476C7.27973 11.131 7.75395 11.6052 7.75395 12.1902V13.2494C7.75395 13.8344 7.27973 14.3086 6.69476 14.3086H4.57637C3.9914 14.3086 3.51718 13.8344 3.51718 13.2494V12.1902Z" fill="#6C6C6C"/>
</svg>
