<svg width="24" height="21" viewBox="0 0 24 21" fill="none" xmlns="http://www.w3.org/2000/svg">
<path d="M2.06356 11.8923H18.6327L13.5614 17.9835C13.4439 18.1247 13.3555 18.2878 13.3011 18.4632C13.2467 18.6386 13.2273 18.8231 13.2442 19.006C13.2783 19.3754 13.4577 19.7162 13.743 19.9533C14.0283 20.1905 14.3961 20.3045 14.7655 20.2705C15.1349 20.2364 15.4757 20.057 15.7128 19.7717L22.6981 11.3894C22.7451 11.3227 22.7871 11.2526 22.8239 11.1798C22.8239 11.1099 22.8937 11.068 22.9217 10.9982C22.985 10.838 23.0181 10.6675 23.0194 10.4952C23.0181 10.323 22.985 10.1525 22.9217 9.9923C22.9217 9.92244 22.8518 9.88053 22.8239 9.81068C22.7871 9.73783 22.7451 9.66779 22.6981 9.60112L15.7128 1.21876C15.5815 1.06106 15.417 0.934235 15.2311 0.847309C15.0451 0.760382 14.8423 0.71549 14.6371 0.715823C14.3107 0.715185 13.9943 0.828871 13.743 1.03715C13.6015 1.15443 13.4846 1.29847 13.3989 1.46101C13.3132 1.62355 13.2603 1.80141 13.2435 1.98439C13.2266 2.16737 13.246 2.35189 13.3005 2.52736C13.3551 2.70284 13.4437 2.86583 13.5614 3.007L18.6327 9.09818H2.06356C1.69304 9.09818 1.33769 9.24537 1.07569 9.50737C0.813694 9.76937 0.666504 10.1247 0.666504 10.4952C0.666504 10.8658 0.813694 11.2211 1.07569 11.4831C1.33769 11.7451 1.69304 11.8923 2.06356 11.8923Z" fill="black"/>
</svg>
