<svg width="21" height="18" viewBox="0 0 21 18" fill="none" xmlns="http://www.w3.org/2000/svg">
<path d="M7.7966 11.8578C3.83279 11.8578 0.447266 12.4701 0.447266 14.9174C0.447266 17.3667 3.81127 18.0001 7.7966 18.0001C11.7604 18.0001 15.1459 17.3877 15.1459 14.9404C15.1459 12.4912 11.7819 11.8578 7.7966 11.8578Z" fill="white"/>
<path opacity="0.4" d="M7.79662 9.52482C10.4962 9.52482 12.6596 7.40617 12.6596 4.76241C12.6596 2.11865 10.4962 0 7.79662 0C5.09798 0 2.93359 2.11865 2.93359 4.76241C2.93359 7.40617 5.09798 9.52482 7.79662 9.52482Z" fill="white"/>
<path opacity="0.4" d="M14.621 4.84873C14.621 6.19505 14.2081 7.45129 13.484 8.4948C13.4087 8.60212 13.4752 8.74682 13.6064 8.76981C13.7884 8.79952 13.9752 8.81773 14.166 8.82156C16.0643 8.87043 17.7678 7.6736 18.2385 5.87116C18.9361 3.19674 16.8891 0.79541 14.2815 0.79541C13.9987 0.79541 13.7277 0.824157 13.4635 0.87686C13.4273 0.884526 13.3882 0.901774 13.3686 0.932437C13.3431 0.971725 13.3617 1.02251 13.3872 1.05605C14.1709 2.13214 14.621 3.44205 14.621 4.84873Z" fill="white"/>
<path d="M20.2267 12.1694C19.8793 11.444 19.0408 10.9467 17.7649 10.7023C17.1631 10.5586 15.533 10.3545 14.0173 10.3832C13.9948 10.3861 13.9821 10.4014 13.9801 10.411C13.9772 10.4263 13.984 10.4493 14.0134 10.4656C14.714 10.8049 17.4214 12.2805 17.0809 15.3929C17.0662 15.5289 17.1768 15.6439 17.3148 15.6248C17.9811 15.5318 19.6954 15.1706 20.2267 14.0475C20.5212 13.4534 20.5212 12.7635 20.2267 12.1694Z" fill="white"/>
</svg>
