<svg width="19" height="20" viewBox="0 0 19 20" fill="none" xmlns="http://www.w3.org/2000/svg">
<path fill-rule="evenodd" clip-rule="evenodd" d="M18.2668 14.3147L17.4979 8.12007C17.0295 5.90964 15.7038 5 14.44 5H4.28523C3.00373 5 1.63386 5.84597 1.23615 8.12007L0.45842 14.3147C-0.177908 18.8629 2.16413 20 5.22204 20H13.512C16.5611 20 18.8324 18.3535 18.2668 14.3147ZM6.45051 10.1486C5.96241 10.1486 5.56672 9.74131 5.56672 9.23893C5.56672 8.73655 5.96241 8.32929 6.45051 8.32929C6.93862 8.32929 7.3343 8.73655 7.3343 9.23893C7.3343 9.74131 6.93862 10.1486 6.45051 10.1486ZM11.3555 9.23893C11.3555 9.74131 11.7512 10.1486 12.2393 10.1486C12.7274 10.1486 13.1231 9.74131 13.1231 9.23893C13.1231 8.73655 12.7274 8.32929 12.2393 8.32929C11.7512 8.32929 11.3555 8.73655 11.3555 9.23893Z" fill="white"/>
<path opacity="0.4" d="M14.3274 4.77432C14.3305 4.85189 14.3156 4.92913 14.2838 5H12.8467C12.8189 4.92794 12.8041 4.85153 12.8032 4.77432C12.8032 2.85682 11.2434 1.30238 9.31927 1.30238C7.39515 1.30238 5.83536 2.85682 5.83536 4.77432C5.84854 4.84898 5.84854 4.92535 5.83536 5H4.3634C4.35022 4.92535 4.35022 4.84898 4.3634 4.77432C4.47524 2.10591 6.67851 0 9.35846 0C12.0384 0 14.2417 2.10591 14.3535 4.77432H14.3274Z" fill="white"/>
</svg>
