<svg width="21" height="20" viewBox="0 0 21 20" fill="none" xmlns="http://www.w3.org/2000/svg">
<path opacity="0.4" d="M14.5229 0H17.9089C19.3111 0 20.4474 1.14585 20.4474 2.55996V5.97452C20.4474 7.38864 19.3111 8.53449 17.9089 8.53449H14.5229C13.1206 8.53449 11.9844 7.38864 11.9844 5.97452V2.55996C11.9844 1.14585 13.1206 0 14.5229 0Z" fill="white"/>
<path fill-rule="evenodd" clip-rule="evenodd" d="M2.98579 0H6.37176C7.77402 0 8.91028 1.14585 8.91028 2.55996V5.97452C8.91028 7.38864 7.77402 8.53449 6.37176 8.53449H2.98579C1.58352 8.53449 0.447266 7.38864 0.447266 5.97452V2.55996C0.447266 1.14585 1.58352 0 2.98579 0ZM2.98579 11.4655H6.37176C7.77402 11.4655 8.91028 12.6114 8.91028 14.0255V17.44C8.91028 18.8532 7.77402 20 6.37176 20H2.98579C1.58352 20 0.447266 18.8532 0.447266 17.44V14.0255C0.447266 12.6114 1.58352 11.4655 2.98579 11.4655ZM17.9087 11.4655H14.5228C13.1205 11.4655 11.9843 12.6114 11.9843 14.0255V17.44C11.9843 18.8532 13.1205 20 14.5228 20H17.9087C19.311 20 20.4473 18.8532 20.4473 17.44V14.0255C20.4473 12.6114 19.311 11.4655 17.9087 11.4655Z" fill="white"/>
</svg>
