<svg width="25" height="24" viewBox="0 0 25 24" fill="none" xmlns="http://www.w3.org/2000/svg">
<path d="M12.459 14.8302C10.8545 14.8302 9.55664 13.5802 9.55664 12.0102C9.55664 10.4402 10.8545 9.18018 12.459 9.18018C14.0635 9.18018 15.3307 10.4402 15.3307 12.0102C15.3307 13.5802 14.0635 14.8302 12.459 14.8302Z" fill="white"/>
<path opacity="0.4" d="M21.6774 14.37C21.4832 14.07 21.2073 13.77 20.8496 13.58C20.5635 13.44 20.3795 13.21 20.216 12.94C19.6948 12.08 20.0014 10.95 20.8701 10.44C21.892 9.87 22.219 8.6 21.6263 7.61L20.9416 6.43C20.3591 5.44 19.0816 5.09 18.0699 5.67C17.1706 6.15 16.0158 5.83 15.4946 4.98C15.331 4.7 15.2391 4.4 15.2595 4.1C15.2902 3.71 15.1675 3.34 14.9836 3.04C14.6055 2.42 13.9207 2 13.1645 2H11.7235C10.9775 2.02 10.2928 2.42 9.91467 3.04C9.7205 3.34 9.60808 3.71 9.62852 4.1C9.64896 4.4 9.55698 4.7 9.39347 4.98C8.87227 5.83 7.71746 6.15 6.82836 5.67C5.8064 5.09 4.53917 5.44 3.94644 6.43L3.26172 7.61C2.67921 8.6 3.00624 9.87 4.01797 10.44C4.88664 10.95 5.19322 12.08 4.68225 12.94C4.50851 13.21 4.32456 13.44 4.03841 13.58C3.69095 13.77 3.38436 14.07 3.22085 14.37C2.84272 14.99 2.86316 15.77 3.24129 16.42L3.94644 17.62C4.32456 18.26 5.02971 18.66 5.76552 18.66C6.11299 18.66 6.52177 18.56 6.84879 18.36C7.10428 18.19 7.41087 18.13 7.74812 18.13C8.75986 18.13 9.60808 18.96 9.62852 19.95C9.62852 21.1 10.5687 22 11.7542 22H13.1441C14.3193 22 15.2595 21.1 15.2595 19.95C15.2902 18.96 16.1384 18.13 17.1501 18.13C17.4772 18.13 17.7837 18.19 18.0494 18.36C18.3765 18.56 18.775 18.66 19.1327 18.66C19.8583 18.66 20.5635 18.26 20.9416 17.62L21.657 16.42C22.0249 15.75 22.0555 14.99 21.6774 14.37Z" fill="white"/>
</svg>
