<svg width="17" height="19" viewBox="0 0 17 19" fill="none" xmlns="http://www.w3.org/2000/svg">
<path d="M11.0031 8.92762C12.2059 8.0504 12.9891 6.63072 12.9891 5.03137C12.9891 2.37365 10.8269 0.211426 8.16921 0.211426C5.51148 0.211426 3.34926 2.37365 3.34926 5.03137C3.34926 6.63072 4.13249 8.0504 5.33533 8.92762C2.34531 10.0718 0.216309 12.9708 0.216309 16.3582C0.216309 17.82 1.40553 19.0092 2.86727 19.0092H13.4711C14.9329 19.0092 16.1221 17.82 16.1221 16.3582C16.1221 12.9708 13.9931 10.0718 11.0031 8.92762ZM4.79526 5.03137C4.79526 3.17098 6.30881 1.65742 8.16921 1.65742C10.0296 1.65742 11.5432 3.17098 11.5432 5.03137C11.5432 6.89176 10.0296 8.40535 8.16921 8.40535C6.30881 8.40535 4.79526 6.89176 4.79526 5.03137ZM13.4711 17.5632H2.86727C2.20285 17.5632 1.66231 17.0227 1.66231 16.3582C1.66231 12.7703 4.58125 9.85128 8.16924 9.85128C11.7572 9.85128 14.6762 12.7702 14.6762 16.3582C14.6761 17.0227 14.1356 17.5632 13.4711 17.5632Z" fill="#8F8F8F"/>
</svg>
