<svg width="37" height="36" viewBox="0 0 37 36" fill="none" xmlns="http://www.w3.org/2000/svg">
<rect x="0.447266" width="36" height="36" rx="18" fill="#EEF0FA"/>
<path fill-rule="evenodd" clip-rule="evenodd" d="M16.4399 20.6724C19.5141 20.6724 22.1416 21.1382 22.1416 22.999C22.1416 24.8599 19.5316 25.339 16.4399 25.339C13.3649 25.339 10.7383 24.8774 10.7383 23.0157C10.7383 21.154 13.3474 20.6724 16.4399 20.6724Z" stroke="#1C1D22" stroke-width="1.5" stroke-linecap="round" stroke-linejoin="round"/>
<path fill-rule="evenodd" clip-rule="evenodd" d="M16.4402 18.0163C14.4218 18.0163 12.7852 16.3805 12.7852 14.3622C12.7852 12.3438 14.4218 10.708 16.4402 10.708C18.4577 10.708 20.0943 12.3438 20.0943 14.3622C20.1018 16.373 18.4768 18.0088 16.466 18.0163H16.4402Z" stroke="#1C1D22" stroke-width="1.5" stroke-linecap="round" stroke-linejoin="round"/>
<path d="M22.1831 17.0679C23.5173 16.8804 24.5448 15.7354 24.5473 14.3496C24.5473 12.9837 23.5514 11.8504 22.2456 11.6362" stroke="#1C1D22" stroke-width="1.5" stroke-linecap="round" stroke-linejoin="round"/>
<path d="M23.9434 20.2769C25.2359 20.4694 26.1384 20.9227 26.1384 21.856C26.1384 22.4985 25.7134 22.9152 25.0267 23.176" stroke="#1C1D22" stroke-width="1.5" stroke-linecap="round" stroke-linejoin="round"/>
</svg>
