<svg width="25" height="24" viewBox="0 0 25 24" fill="none" xmlns="http://www.w3.org/2000/svg">
<path d="M3.44727 18V12C3.44727 9.61305 4.39548 7.32387 6.0833 5.63604C7.77113 3.94821 10.0603 3 12.4473 3C14.8342 3 17.1234 3.94821 18.8112 5.63604C20.4991 7.32387 21.4473 9.61305 21.4473 12V18" stroke="black" stroke-width="2" stroke-linecap="round" stroke-linejoin="round"/>
<path d="M21.4473 19C21.4473 19.5304 21.2366 20.0391 20.8615 20.4142C20.4864 20.7893 19.9777 21 19.4473 21H18.4473C17.9168 21 17.4081 20.7893 17.0331 20.4142C16.658 20.0391 16.4473 19.5304 16.4473 19V16C16.4473 15.4696 16.658 14.9609 17.0331 14.5858C17.4081 14.2107 17.9168 14 18.4473 14H21.4473V19ZM3.44727 19C3.44727 19.5304 3.65798 20.0391 4.03305 20.4142C4.40812 20.7893 4.91683 21 5.44727 21H6.44727C6.9777 21 7.48641 20.7893 7.86148 20.4142C8.23655 20.0391 8.44727 19.5304 8.44727 19V16C8.44727 15.4696 8.23655 14.9609 7.86148 14.5858C7.48641 14.2107 6.9777 14 6.44727 14H3.44727V19Z" stroke="black" stroke-width="2" stroke-linecap="round" stroke-linejoin="round"/>
</svg>
