<svg width="37" height="36" viewBox="0 0 37 36" fill="none" xmlns="http://www.w3.org/2000/svg">
<rect x="0.447266" width="36" height="36" rx="18" fill="#EEF0FA"/>
<path fill-rule="evenodd" clip-rule="evenodd" d="M22.2087 25.9166H15.2522C12.6969 25.9166 10.7366 24.9936 11.2934 21.2789L11.9418 16.2446C12.285 14.391 13.4673 13.6816 14.5047 13.6816H22.9868C24.0394 13.6816 25.1531 14.4444 25.5497 16.2446L26.1981 21.2789C26.671 24.5741 24.764 25.9166 22.2087 25.9166Z" stroke="#130F26" stroke-width="1.5" stroke-linecap="round" stroke-linejoin="round"/>
<path d="M22.3233 13.4988C22.3233 11.5104 20.7114 9.89847 18.723 9.89847V9.89847C17.7655 9.89441 16.8458 10.2719 16.1673 10.9476C15.4888 11.6232 15.1074 12.5413 15.1074 13.4988V13.4988" stroke="#130F26" stroke-width="1.5" stroke-linecap="round" stroke-linejoin="round"/>
<path d="M21.1944 17.2515H21.1563" stroke="#130F26" stroke-width="1.5" stroke-linecap="round" stroke-linejoin="round"/>
<path d="M16.3355 17.2515H16.2974" stroke="#130F26" stroke-width="1.5" stroke-linecap="round" stroke-linejoin="round"/>
</svg>
