<svg width="25" height="24" viewBox="0 0 25 24" fill="none" xmlns="http://www.w3.org/2000/svg">
<path fill-rule="evenodd" clip-rule="evenodd" d="M10.0388 15.207C13.7278 15.207 16.8808 15.766 16.8808 17.999C16.8808 20.232 13.7488 20.807 10.0388 20.807C6.34878 20.807 3.19678 20.253 3.19678 18.019C3.19678 15.785 6.32778 15.207 10.0388 15.207Z" stroke="#53545C" stroke-width="1.5" stroke-linecap="round" stroke-linejoin="round"/>
<path fill-rule="evenodd" clip-rule="evenodd" d="M10.0388 12.02C7.61683 12.02 5.65283 10.057 5.65283 7.635C5.65283 5.213 7.61683 3.25 10.0388 3.25C12.4598 3.25 14.4238 5.213 14.4238 7.635C14.4328 10.048 12.4828 12.011 10.0698 12.02H10.0388Z" stroke="#53545C" stroke-width="1.5" stroke-linecap="round" stroke-linejoin="round"/>
<path d="M16.9302 10.8818C18.5312 10.6568 19.7642 9.28277 19.7672 7.61977C19.7672 5.98077 18.5722 4.62077 17.0052 4.36377" stroke="#53545C" stroke-width="1.5" stroke-linecap="round" stroke-linejoin="round"/>
<path d="M19.0425 14.7324C20.5935 14.9634 21.6765 15.5074 21.6765 16.6274C21.6765 17.3984 21.1665 17.8984 20.3425 18.2114" stroke="#53545C" stroke-width="1.5" stroke-linecap="round" stroke-linejoin="round"/>
</svg>
