<svg width="37" height="36" viewBox="0 0 37 36" fill="none" xmlns="http://www.w3.org/2000/svg">
<path d="M0.54834 18C0.54834 8.05888 8.60721 0 18.5483 0C28.4895 0 36.5483 8.05888 36.5483 18C36.5483 27.9411 28.4895 36 18.5483 36C8.60721 36 0.54834 27.9411 0.54834 18Z" fill="#EEF0FA"/>
<path fill-rule="evenodd" clip-rule="evenodd" d="M20.6318 16.7504C20.6318 15.5993 19.6991 14.6666 18.5488 14.6666C17.3978 14.6666 16.4651 15.5993 16.4651 16.7504C16.4651 17.9006 17.3978 18.8333 18.5488 18.8333C19.6991 18.8333 20.6318 17.9006 20.6318 16.7504Z" stroke="#130F26" stroke-width="1.5" stroke-linecap="round" stroke-linejoin="round"/>
<path fill-rule="evenodd" clip-rule="evenodd" d="M18.5479 25.5C17.5492 25.5 12.2983 21.2486 12.2983 16.8027C12.2983 13.3222 15.0959 10.5 18.5479 10.5C21.9999 10.5 24.7983 13.3222 24.7983 16.8027C24.7983 21.2486 19.5467 25.5 18.5479 25.5Z" stroke="#130F26" stroke-width="1.5" stroke-linecap="round" stroke-linejoin="round"/>
</svg>
