<svg width="37" height="36" viewBox="0 0 37 36" fill="none" xmlns="http://www.w3.org/2000/svg">
<path d="M0.447266 18C0.447266 8.05888 8.50614 0 18.4473 0C28.3884 0 36.4473 8.05888 36.4473 18C36.4473 27.9411 28.3884 36 18.4473 36C8.50614 36 0.447266 27.9411 0.447266 18Z" fill="#EEF0FA"/>
<g clip-path="url(#clip0_2094_485)">
<path d="M25.1141 26.3332C25.5743 26.3332 25.9474 25.9601 25.9474 25.4998C25.9474 25.0396 25.5743 24.6665 25.1141 24.6665C24.6539 24.6665 24.2808 25.0396 24.2808 25.4998C24.2808 25.9601 24.6539 26.3332 25.1141 26.3332Z" stroke="black" stroke-width="2" stroke-linecap="round" stroke-linejoin="round"/>
<path d="M15.9471 26.3332C16.4073 26.3332 16.7804 25.9601 16.7804 25.4998C16.7804 25.0396 16.4073 24.6665 15.9471 24.6665C15.4869 24.6665 15.1138 25.0396 15.1138 25.4998C15.1138 25.9601 15.4869 26.3332 15.9471 26.3332Z" stroke="black" stroke-width="2" stroke-linecap="round" stroke-linejoin="round"/>
<path d="M9.28076 8.8335H12.6141L14.8474 19.9918C14.9236 20.3755 15.1324 20.7201 15.437 20.9654C15.7417 21.2107 16.123 21.341 16.5141 21.3335H24.6141C25.0052 21.341 25.3864 21.2107 25.6911 20.9654C25.9958 20.7201 26.2046 20.3755 26.2808 19.9918L27.6141 13.0002H13.4474" stroke="black" stroke-width="2" stroke-linecap="round" stroke-linejoin="round"/>
</g>
<defs>
<clipPath id="clip0_2094_485">
<rect width="20" height="20" fill="white" transform="translate(8.44727 8)"/>
</clipPath>
</defs>
</svg>
