<svg width="46" height="45" viewBox="0 0 46 45" fill="none" xmlns="http://www.w3.org/2000/svg">
<path d="M0.54834 22.5C0.54834 10.0736 10.6219 0 23.0483 0C35.4747 0 45.5483 10.0736 45.5483 22.5C45.5483 34.9264 35.4747 45 23.0483 45C10.6219 45 0.54834 34.9264 0.54834 22.5Z" fill="#EEF0FA"/>
<path d="M23.5447 26.7037C18.5128 26.7037 14.2148 27.4971 14.2148 30.6704C14.2148 33.8449 18.486 34.6662 23.5447 34.6662C28.5765 34.6662 32.8745 33.8741 32.8745 30.6996C32.8745 27.5251 28.6045 26.7037 23.5447 26.7037" fill="#130F26"/>
<path opacity="0.4" d="M23.5446 23.681C26.9723 23.681 29.7186 20.9335 29.7186 17.507C29.7186 14.0805 26.9723 11.333 23.5446 11.333C20.1181 11.333 17.3706 14.0805 17.3706 17.507C17.3706 20.9335 20.1181 23.681 23.5446 23.681" fill="#130F26"/>
</svg>
