<svg width="17" height="16" viewBox="0 0 17 16" fill="none" xmlns="http://www.w3.org/2000/svg">
<g clip-path="url(#clip0_2057_5033)">
<path d="M10.4998 4.66675H12.4998C12.9376 4.66675 13.371 4.75297 13.7754 4.92048C14.1799 5.088 14.5473 5.33353 14.8569 5.64306C15.1664 5.95259 15.4119 6.32005 15.5794 6.72447C15.747 7.12889 15.8332 7.56234 15.8332 8.00008C15.8332 8.43782 15.747 8.87127 15.5794 9.27569C15.4119 9.68011 15.1664 10.0476 14.8569 10.3571C14.5473 10.6666 14.1799 10.9122 13.7754 11.0797C13.371 11.2472 12.9376 11.3334 12.4998 11.3334H10.4998M6.49984 11.3334H4.49984C4.0621 11.3334 3.62864 11.2472 3.22423 11.0797C2.81981 10.9122 2.45234 10.6666 2.14281 10.3571C1.51769 9.73198 1.1665 8.88414 1.1665 8.00008C1.1665 7.11603 1.51769 6.26818 2.14281 5.64306C2.76794 5.01794 3.61578 4.66675 4.49984 4.66675H6.49984" stroke="black" stroke-width="1.2" stroke-linecap="round" stroke-linejoin="round"/>
<path d="M5.8335 8H11.1668" stroke="black" stroke-width="1.2" stroke-linecap="round" stroke-linejoin="round"/>
</g>
<defs>
<clipPath id="clip0_2057_5033">
<rect width="16" height="16" fill="white" transform="translate(0.5)"/>
</clipPath>
</defs>
</svg>
