<svg width="15" height="18" viewBox="0 0 15 18" fill="none" xmlns="http://www.w3.org/2000/svg">
<path d="M13.9217 8.7044C13.313 7.99354 13.0363 7.3775 13.0363 6.33092V5.97507C13.0363 4.61124 12.7224 3.73251 12.04 2.85379C10.9881 1.48912 9.21742 0.666626 7.48396 0.666626H7.41025C5.71323 0.666626 3.99799 1.45135 2.92793 2.76063C2.20821 3.65698 1.85787 4.57347 1.85787 5.97507V6.33092C1.85787 7.3775 1.59947 7.99354 0.97251 8.7044C0.511192 9.22812 0.36377 9.90122 0.36377 10.6297C0.36377 11.359 0.603125 12.0498 1.08349 12.6113C1.71045 13.2844 2.59582 13.7141 3.50023 13.7888C4.80964 13.9382 6.11906 13.9944 7.44752 13.9944C8.77515 13.9944 10.0846 13.9004 11.3948 13.7888C12.2984 13.7141 13.1838 13.2844 13.8107 12.6113C14.2903 12.0498 14.5304 11.359 14.5304 10.6297C14.5304 9.90122 14.383 9.22812 13.9217 8.7044Z" fill="black"/>
<path opacity="0.4" d="M9.12123 15.0236C8.70464 14.9347 6.16615 14.9347 5.74956 15.0236C5.39342 15.1059 5.0083 15.2972 5.0083 15.7169C5.02901 16.1172 5.26339 16.4706 5.58805 16.6946L5.58723 16.6955C6.00713 17.0228 6.49992 17.2309 7.0159 17.3056C7.29087 17.3434 7.57081 17.3417 7.85571 17.3056C8.37087 17.2309 8.86366 17.0228 9.28356 16.6955L9.28273 16.6946C9.60739 16.4706 9.84178 16.1172 9.86249 15.7169C9.86249 15.2972 9.47736 15.1059 9.12123 15.0236Z" fill="black"/>
</svg>
