<svg width="25" height="24" viewBox="0 0 25 24" fill="none" xmlns="http://www.w3.org/2000/svg">
<path fill-rule="evenodd" clip-rule="evenodd" d="M21.2537 7.62337L20.6313 6.54328C20.1047 5.62936 18.9377 5.31408 18.0226 5.83847V5.83847C17.5869 6.0951 17.0671 6.16791 16.5777 6.04084C16.0884 5.91378 15.6696 5.59727 15.4139 5.16113C15.2493 4.8839 15.1609 4.56815 15.1576 4.2458V4.2458C15.1724 3.72898 14.9774 3.22816 14.617 2.85743C14.2567 2.48669 13.7616 2.27762 13.2445 2.27783H11.9905C11.484 2.27783 10.9983 2.47967 10.641 2.8387C10.2837 3.19773 10.0842 3.68435 10.0866 4.19088V4.19088C10.0716 5.23668 9.2195 6.07657 8.17359 6.07646C7.85123 6.07311 7.53548 5.9847 7.25826 5.82017V5.82017C6.34308 5.29577 5.17613 5.61105 4.64956 6.52497L3.98137 7.62337C3.45543 8.53615 3.76642 9.70236 4.67702 10.2321V10.2321C5.26892 10.5738 5.63355 11.2053 5.63355 11.8888C5.63355 12.5723 5.26892 13.2038 4.67702 13.5456V13.5456C3.76758 14.0717 3.45625 15.2351 3.98137 16.1451V16.1451L4.61295 17.2344C4.85967 17.6795 5.27362 18.0081 5.76321 18.1472C6.2528 18.2863 6.77766 18.2247 7.22164 17.9758V17.9758C7.6581 17.7211 8.17821 17.6513 8.66636 17.782C9.15451 17.9126 9.57026 18.2328 9.82119 18.6714C9.98572 18.9486 10.0741 19.2644 10.0775 19.5868V19.5868C10.0775 20.6433 10.934 21.4998 11.9905 21.4998H13.2445C14.2975 21.4998 15.1525 20.6489 15.1576 19.5959V19.5959C15.1551 19.0878 15.3559 18.5998 15.7152 18.2405C16.0745 17.8812 16.5625 17.6804 17.0706 17.6829C17.3922 17.6915 17.7067 17.7795 17.9859 17.9392V17.9392C18.8987 18.4651 20.0649 18.1541 20.5946 17.2435V17.2435L21.2537 16.1451C21.5088 15.7073 21.5788 15.1858 21.4482 14.6961C21.3177 14.2065 20.9973 13.7891 20.558 13.5364V13.5364C20.1188 13.2837 19.7984 12.8663 19.6678 12.3767C19.5373 11.8871 19.6073 11.3656 19.8624 10.9277C20.0283 10.6381 20.2684 10.398 20.558 10.2321V10.2321C21.4632 9.70265 21.7734 8.54325 21.2537 7.63252V7.63252V7.62337Z" stroke="#53545C" stroke-width="1.5" stroke-linecap="round" stroke-linejoin="round"/>
<circle cx="12.622" cy="11.8886" r="2.63616" stroke="#53545C" stroke-width="1.5" stroke-linecap="round" stroke-linejoin="round"/>
</svg>
