<svg width="17" height="16" viewBox="0 0 17 16" fill="none" xmlns="http://www.w3.org/2000/svg">
<path d="M14.4473 5.16675H2.44727C2.17393 5.16675 1.94727 4.94008 1.94727 4.66675C1.94727 4.39341 2.17393 4.16675 2.44727 4.16675H14.4473C14.7206 4.16675 14.9473 4.39341 14.9473 4.66675C14.9473 4.94008 14.7206 5.16675 14.4473 5.16675Z" fill="#00092E"/>
<path d="M12.4473 8.5H4.44727C4.17393 8.5 3.94727 8.27333 3.94727 8C3.94727 7.72667 4.17393 7.5 4.44727 7.5H12.4473C12.7206 7.5 12.9473 7.72667 12.9473 8C12.9473 8.27333 12.7206 8.5 12.4473 8.5Z" fill="#00092E"/>
<path d="M9.78044 11.8333H7.11377C6.84044 11.8333 6.61377 11.6066 6.61377 11.3333C6.61377 11.0599 6.84044 10.8333 7.11377 10.8333H9.78044C10.0538 10.8333 10.2804 11.0599 10.2804 11.3333C10.2804 11.6066 10.0538 11.8333 9.78044 11.8333Z" fill="#00092E"/>
</svg>
