<svg width="25" height="24" viewBox="0 0 25 24" fill="none" xmlns="http://www.w3.org/2000/svg">
<g clip-path="url(#clip0_394_12203)">
<path d="M15.9964 4.70153L7.66521 13.0327C7.34701 13.3492 7.09475 13.7257 6.92303 14.1403C6.75131 14.5549 6.66354 14.9995 6.66481 15.4483V16.366C6.66481 16.5473 6.7368 16.7211 6.86495 16.8492C6.9931 16.9774 7.16691 17.0494 7.34814 17.0494H8.26586C8.71465 17.0506 9.15923 16.9629 9.57387 16.7911C9.9885 16.6194 10.365 16.3672 10.6814 16.049L19.0126 7.71777C19.412 7.31745 19.6362 6.77509 19.6362 6.20965C19.6362 5.64421 19.412 5.10185 19.0126 4.70153C18.6065 4.31333 18.0663 4.09668 17.5045 4.09668C16.9427 4.09668 16.4025 4.31333 15.9964 4.70153ZM18.0464 6.75153L9.71521 15.0827C9.32989 15.4657 8.80911 15.6813 8.26586 15.6827H8.03147V15.4483C8.0329 14.9051 8.24848 14.3843 8.63144 13.999L16.9626 5.66777C17.1086 5.52834 17.3027 5.45053 17.5045 5.45053C17.7064 5.45053 17.9005 5.52834 18.0464 5.66777C18.1899 5.81162 18.2704 6.00649 18.2704 6.20965C18.2704 6.41281 18.1899 6.60768 18.0464 6.75153Z" fill="#374151"/>
<path d="M18.9647 10.2021C18.7835 10.2021 18.6097 10.2741 18.4815 10.4022C18.3534 10.5304 18.2814 10.7042 18.2814 10.8854V14.3164H15.548C15.0044 14.3164 14.4829 14.5324 14.0985 14.9168C13.714 15.3013 13.498 15.8227 13.498 16.3664V19.0997H6.66471C6.12102 19.0997 5.59959 18.8838 5.21514 18.4993C4.8307 18.1149 4.61471 17.5934 4.61471 17.0497V7.48307C4.61471 6.93938 4.8307 6.41795 5.21514 6.0335C5.59959 5.64905 6.12102 5.43307 6.66471 5.43307H12.8434C13.0246 5.43307 13.1985 5.36108 13.3266 5.23293C13.4548 5.10478 13.5267 4.93097 13.5267 4.74974C13.5267 4.56851 13.4548 4.3947 13.3266 4.26655C13.1985 4.1384 13.0246 4.06641 12.8434 4.06641H6.66471C5.75889 4.06749 4.89048 4.42781 4.24996 5.06832C3.60945 5.70884 3.24913 6.57725 3.24805 7.48307L3.24805 17.0497C3.24913 17.9556 3.60945 18.824 4.24996 19.4645C4.89048 20.105 5.75889 20.4653 6.66471 20.4664H14.4158C14.8647 20.4677 15.3093 20.3799 15.7241 20.2082C16.1388 20.0365 16.5154 19.7842 16.832 19.466L18.647 17.6497C18.9652 17.3332 19.2176 16.9568 19.3894 16.5422C19.5612 16.1275 19.6491 15.6829 19.648 15.2341V10.8854C19.648 10.7042 19.5761 10.5304 19.4479 10.4022C19.3198 10.2741 19.1459 10.2021 18.9647 10.2021ZM15.8658 18.4998C15.5911 18.7738 15.2437 18.9635 14.8647 19.0464V16.3664C14.8647 16.1852 14.9367 16.0114 15.0649 15.8832C15.193 15.7551 15.3668 15.6831 15.548 15.6831H18.2301C18.1456 16.0613 17.9561 16.408 17.6835 16.6835L15.8658 18.4998Z" fill="#374151"/>
</g>
<defs>
<clipPath id="clip0_394_12203">
<rect width="16.4" height="16.4" fill="white" transform="translate(3.24805 4.06641)"/>
</clipPath>
</defs>
</svg>
