<svg width="24" height="18" viewBox="0 0 24 18" fill="none" xmlns="http://www.w3.org/2000/svg">
<path fill-rule="evenodd" clip-rule="evenodd" d="M15.6723 13.8056H9.84675C9.40825 13.8056 9.05236 13.4509 9.05236 13.0139C9.05236 12.5769 9.40825 12.2223 9.84675 12.2223H15.6723C16.1108 12.2223 16.4667 12.5769 16.4667 13.0139C16.4667 13.4509 16.1108 13.8056 15.6723 13.8056ZM8.00376 6.0886C8.00376 6.38099 7.76544 6.61637 7.47416 6.61637H3.23739C2.944 6.61637 2.7078 6.38099 2.7078 6.0886V3.44979C2.7078 3.15952 2.944 2.92202 3.23739 2.92202H7.47416C7.76544 2.92202 8.00376 3.15952 8.00376 3.44979V6.0886ZM6.66918 13.8056H3.4916C3.05309 13.8056 2.6972 13.4509 2.6972 13.0139C2.6972 12.5769 3.05309 12.2223 3.4916 12.2223H6.66918C7.10768 12.2223 7.46357 12.5769 7.46357 13.0139C7.46357 13.4509 7.10768 13.8056 6.66918 13.8056ZM21.7733 0.283203H1.6486C0.771592 0.283203 0.0598145 0.992518 0.0598145 1.86649V15.5884C0.0598145 16.4634 0.771592 17.1716 1.6486 17.1716H21.7733C22.6513 17.1716 23.3621 16.4634 23.3621 15.5884V1.86649C23.3621 0.992518 22.6513 0.283203 21.7733 0.283203Z" fill="#6C6C6C"/>
</svg>
