<svg width="55" height="55" viewBox="0 0 55 55" fill="none" xmlns="http://www.w3.org/2000/svg">
<path d="M53.6913 27.1288C53.6913 12.5525 41.9429 0.736038 27.4504 0.736039C12.9579 0.73604 1.20947 12.5525 1.20947 27.1288C1.20947 41.7051 12.9579 53.5215 27.4504 53.5215C41.9429 53.5215 53.6913 41.7051 53.6913 27.1288Z" stroke="white" stroke-width="1.05596"/>
<path d="M25.7928 34.1914L25.7712 27.5819H22.9434V24.7493H25.7712V22.8608C25.7712 20.3122 27.3467 19.084 29.6164 19.084C30.7035 19.084 31.6379 19.1651 31.9102 19.2013V21.8648L30.3361 21.8655C29.1018 21.8655 28.8627 22.453 28.8627 23.3152V24.7493H32.3693L31.4267 27.5819H28.8627V34.1914H25.7928Z" fill="white"/>
</svg>
