<svg width="55" height="55" viewBox="0 0 55 55" fill="none" xmlns="http://www.w3.org/2000/svg">
<path d="M53.516 27.1288C53.516 12.5525 41.7676 0.736038 27.2751 0.736039C12.7826 0.73604 1.03418 12.5525 1.03418 27.1288C1.03418 41.7051 12.7826 53.5215 27.2751 53.5215C41.7676 53.5215 53.516 41.7051 53.516 27.1288Z" stroke="white" stroke-width="1.05596"/>
<g clip-path="url(#clip0_120_38703)">
<path d="M19.4028 23.1692L19.4028 31.087C19.4028 33.2734 21.1651 35.0459 23.339 35.0459L31.2112 35.0459C33.3851 35.0459 35.1474 33.2734 35.1474 31.087L35.1474 23.1692C35.1474 20.9827 33.3851 19.2103 31.2112 19.2103L23.339 19.2103C21.1651 19.2103 19.4028 20.9827 19.4028 23.1692Z" stroke="white" stroke-width="2.11191" stroke-linecap="round" stroke-linejoin="round"/>
<path d="M26.7798 23.9607C27.435 23.863 28.1041 23.9756 28.692 24.2824C29.2799 24.5892 29.7566 25.0747 30.0544 25.6697C30.3522 26.2647 30.4558 26.9391 30.3506 27.5968C30.2454 28.2545 29.9366 28.8621 29.4683 29.3331C29 29.8042 28.3959 30.1147 27.742 30.2205C27.088 30.3263 26.4176 30.2221 25.826 29.9226C25.2344 29.6231 24.7517 29.1436 24.4466 28.5523C24.1416 27.961 24.0297 27.288 24.1268 26.629C24.2259 25.9569 24.5373 25.3346 25.0151 24.8541C25.4928 24.3736 26.1115 24.0604 26.7798 23.9607Z" stroke="white" stroke-width="2.11191" stroke-linecap="round" stroke-linejoin="round"/>
<ellipse cx="22.943" cy="22.7749" rx="1.18795" ry="1.18084" transform="rotate(-90 22.943 22.7749)" fill="white"/>
</g>
<defs>
<clipPath id="clip0_120_38703">
<rect width="19.0028" height="18.8935" fill="white" transform="translate(17.8286 36.6299) rotate(-90)"/>
</clipPath>
</defs>
</svg>
