<svg width="21" height="26" viewBox="0 0 21 26" fill="none" xmlns="http://www.w3.org/2000/svg">
<path d="M10.5328 6.54297C9.7802 6.54297 9.04449 6.80334 8.41872 7.29116C7.79294 7.77897 7.30521 8.47233 7.0172 9.28354C6.72919 10.0947 6.65383 10.9874 6.80066 11.8486C6.94749 12.7097 7.3099 13.5008 7.84208 14.1216C8.37426 14.7425 9.05229 15.1653 9.79044 15.3366C10.5286 15.5079 11.2937 15.42 11.989 15.084C12.6844 14.748 13.2787 14.179 13.6968 13.4489C14.1149 12.7188 14.3381 11.8605 14.3381 10.9825C14.3381 9.80503 13.9372 8.67583 13.2235 7.84326C12.5099 7.0107 11.542 6.54297 10.5328 6.54297ZM10.5328 13.2022C10.1565 13.2022 9.78865 13.072 9.47577 12.8281C9.16288 12.5842 8.91901 12.2375 8.77501 11.8319C8.631 11.4263 8.59332 10.98 8.66674 10.5494C8.74015 10.1188 8.92136 9.7233 9.18745 9.41286C9.45354 9.10242 9.79255 8.89101 10.1616 8.80536C10.5307 8.71971 10.9133 8.76367 11.2609 8.93168C11.6086 9.09969 11.9057 9.3842 12.1148 9.74923C12.3239 10.1143 12.4355 10.5434 12.4355 10.9825C12.4355 11.5712 12.235 12.1358 11.8782 12.552C11.5214 12.9683 11.0374 13.2022 10.5328 13.2022Z" fill="#6D18EC"/>
<path d="M10.5327 25.5696C9.68286 25.5741 8.84439 25.3654 8.08745 24.9609C7.33051 24.5563 6.67714 23.9677 6.18204 23.2443C2.33602 17.6881 0.385254 13.5111 0.385254 10.8286C0.385254 8.01003 1.45435 5.3069 3.35736 3.31387C5.26036 1.32084 7.84139 0.201172 10.5327 0.201172C13.2239 0.201172 15.8049 1.32084 17.7079 3.31387C19.611 5.3069 20.68 8.01003 20.68 10.8286C20.68 13.5111 18.7293 17.6881 14.8833 23.2443C14.3882 23.9677 13.7348 24.5563 12.9778 24.9609C12.2209 25.3654 11.3824 25.5741 10.5327 25.5696ZM10.5327 2.50845C8.42588 2.51097 6.40609 3.38858 4.91638 4.94876C3.42667 6.50894 2.5887 8.62428 2.5863 10.8307C2.5863 12.9551 4.49669 16.8837 7.96426 21.8925C8.25864 22.3172 8.64483 22.6628 9.09124 22.9011C9.53765 23.1394 10.0316 23.2637 10.5327 23.2637C11.0337 23.2637 11.5277 23.1394 11.9741 22.9011C12.4205 22.6628 12.8067 22.3172 13.101 21.8925C16.5686 16.8837 18.479 12.9551 18.479 10.8307C18.4766 8.62428 17.6386 6.50894 16.1489 4.94876C14.6592 3.38858 12.6394 2.51097 10.5327 2.50845Z" fill="#6D18EC"/>
</svg>
