<svg width="23" height="24" viewBox="0 0 23 24" fill="none" xmlns="http://www.w3.org/2000/svg">
<path d="M12.3197 1.45239C12.3197 1.20279 12.4188 0.96341 12.5953 0.786916C12.7718 0.610422 13.0112 0.511269 13.2608 0.511269C15.7559 0.514009 18.1481 1.50642 19.9124 3.27077C21.6767 5.03512 22.6691 7.4273 22.6718 9.92247C22.6718 10.1721 22.5727 10.4114 22.3962 10.5879C22.2197 10.7644 21.9803 10.8636 21.7307 10.8636C21.4811 10.8636 21.2418 10.7644 21.0653 10.5879C20.8888 10.4114 20.7896 10.1721 20.7896 9.92247C20.7874 7.92635 19.9935 6.01263 18.582 4.60116C17.1706 3.1897 15.2569 2.39575 13.2608 2.39351C13.0112 2.39351 12.7718 2.29435 12.5953 2.11786C12.4188 1.94137 12.3197 1.70199 12.3197 1.45239ZM13.2608 6.15799C14.2592 6.15799 15.2167 6.5546 15.9226 7.26058C16.6286 7.96655 17.0252 8.92406 17.0252 9.92247C17.0252 10.1721 17.1244 10.4114 17.3008 10.5879C17.4773 10.7644 17.7167 10.8636 17.9663 10.8636C18.2159 10.8636 18.4553 10.7644 18.6318 10.5879C18.8083 10.4114 18.9074 10.1721 18.9074 9.92247C18.9059 8.42532 18.3105 6.98993 17.2519 5.93128C16.1933 4.87264 14.7579 4.27724 13.2608 4.27575C13.0112 4.27575 12.7718 4.3749 12.5953 4.5514C12.4188 4.72789 12.3197 4.96727 12.3197 5.21687C12.3197 5.46647 12.4188 5.70584 12.5953 5.88234C12.7718 6.05883 13.0112 6.15799 13.2608 6.15799ZM21.8183 16.2647C22.3636 16.8116 22.6699 17.5524 22.6699 18.3248C22.6699 19.0971 22.3636 19.838 21.8183 20.3849L20.9619 21.3721C13.2542 28.7514 -5.50205 9.99964 1.76329 2.2674L2.84556 1.32628C3.39307 0.796124 4.12728 0.502845 4.88936 0.50989C5.65145 0.516935 6.38011 0.823738 6.91773 1.36392C6.9469 1.3931 8.69077 3.65837 8.69077 3.65837C9.20822 4.20199 9.49627 4.92411 9.49504 5.67463C9.49381 6.42515 9.2034 7.14633 8.68418 7.68825L7.59438 9.05852C8.19749 10.5239 9.08421 11.8558 10.2036 12.9774C11.323 14.0991 12.653 14.9885 14.1172 15.5946L15.4959 14.4982C16.0379 13.9794 16.7589 13.6893 17.5092 13.6882C18.2595 13.6872 18.9813 13.9752 19.5248 14.4925C19.5248 14.4925 21.7891 16.2355 21.8183 16.2647ZM20.5233 17.6331C20.5233 17.6331 18.2712 15.9005 18.2421 15.8713C18.0482 15.679 17.7862 15.5712 17.5132 15.5712C17.2401 15.5712 16.9782 15.679 16.7843 15.8713C16.7589 15.8976 14.8607 17.41 14.8607 17.41C14.7327 17.5118 14.5805 17.5786 14.419 17.6037C14.2574 17.6287 14.0921 17.6113 13.9393 17.5531C12.0425 16.8468 10.3196 15.7412 8.88731 14.311C7.45503 12.8808 6.34685 11.1595 5.63782 9.26368C5.57495 9.10883 5.55446 8.94002 5.57844 8.77462C5.60242 8.60922 5.67002 8.45319 5.77428 8.32256C5.77428 8.32256 7.28664 6.42338 7.31205 6.39891C7.50429 6.20503 7.61215 5.94305 7.61215 5.67002C7.61215 5.39698 7.50429 5.135 7.31205 4.94112C7.28288 4.91289 5.5503 2.6589 5.5503 2.6589C5.35351 2.48245 5.09669 2.38795 4.83247 2.39478C4.56825 2.4016 4.31664 2.50923 4.12923 2.69561L3.04696 3.63673C-2.26277 10.0213 13.9911 25.3738 19.586 20.0866L20.4433 19.0984C20.6442 18.9123 20.7649 18.6554 20.7798 18.3819C20.7947 18.1085 20.7028 17.8399 20.5233 17.6331Z" fill="#6D18EC"/>
</svg>
