<svg width="54" height="55" viewBox="0 0 54 55" fill="none" xmlns="http://www.w3.org/2000/svg">
<path d="M53.3407 27.1288C53.3407 12.5525 41.5923 0.736038 27.0998 0.736039C12.6073 0.73604 0.858885 12.5525 0.858886 27.1288C0.858886 41.7051 12.6074 53.5215 27.0998 53.5215C41.5923 53.5215 53.3407 41.7051 53.3407 27.1288Z" stroke="white" stroke-width="1.05596"/>
<path d="M34.4815 22.2571C33.9159 22.5404 33.3503 22.6348 32.6905 22.7293C33.3503 22.3516 33.8216 21.785 34.0102 21.0297C33.4446 21.4073 32.7848 21.5962 32.0307 21.785C31.4651 21.2185 30.6168 20.8408 29.7685 20.8408C28.1661 20.8408 26.7522 22.2571 26.7522 23.9567C26.7522 24.24 26.7522 24.4288 26.8464 24.6177C24.3014 24.5233 21.9449 23.2958 20.4368 21.4073C20.154 21.8795 20.0597 22.3516 20.0597 23.0125C20.0597 24.0512 20.6253 24.9954 21.4736 25.5619C21.0023 25.5619 20.531 25.3731 20.0597 25.1842C20.0597 26.695 21.0966 27.9224 22.5105 28.2057C22.2277 28.3001 21.9449 28.3001 21.6621 28.3001C21.4736 28.3001 21.2851 28.3001 21.0966 28.2057C21.4736 29.4332 22.6047 30.3774 24.0186 30.3774C22.9818 31.2272 21.6621 31.6993 20.154 31.6993C19.8712 31.6993 19.6827 31.6993 19.3999 31.6993C20.8138 32.5491 22.4162 33.1156 24.1129 33.1156C29.7685 33.1156 32.879 28.3945 32.879 24.3344C32.879 24.24 32.879 24.0512 32.879 23.9567C33.5389 23.4846 34.1044 22.9181 34.4815 22.2571Z" fill="white"/>
</svg>
